<?xml version="1.0" standalone="no"?>
<!DOCTYPE svg PUBLIC "-//W3C//DTD SVG 20010904//EN"
 "http://www.w3.org/TR/2001/REC-SVG-20010904/DTD/svg10.dtd">
<svg version="1.0" xmlns="http://www.w3.org/2000/svg"
 width="1024.000000pt" height="1024.000000pt" viewBox="0 0 1024.000000 1024.000000"
 preserveAspectRatio="xMidYMid meet">

<g transform="translate(0.000000,1024.000000) scale(0.100000,-0.100000)"
fill="#000000" stroke="none">
<path d="M5810 7613 c-117 -18 -226 -99 -294 -217 l-30 -51 -6 -350 c-4 -192
-5 -510 -2 -705 l4 -355 33 -70 c45 -93 116 -166 200 -204 17 -7 38 -17 47
-22 29 -15 208 -10 262 6 51 16 97 41 136 76 14 11 34 29 45 38 11 9 38 52 60
96 l40 80 3 624 c3 679 -1 757 -44 843 -77 153 -267 241 -454 211z"/>
<path d="M8170 7606 c-120 -33 -205 -105 -267 -226 l-24 -45 0 -850 c1 -970 2
-948 -74 -1030 -23 -25 -47 -45 -52 -45 -5 0 -22 33 -39 72 -188 464 -474 792
-863 990 -123 62 -177 64 -206 7 -12 -23 -15 -92 -15 -394 l0 -366 53 -56 c28
-31 70 -73 92 -94 82 -76 185 -236 238 -370 59 -150 70 -219 71 -424 0 -168
-2 -197 -21 -250 -12 -33 -24 -74 -27 -91 -9 -55 -116 -284 -132 -284 -6 0
-15 -10 -18 -22 -3 -13 -20 -41 -38 -63 -42 -50 -164 -175 -173 -175 -3 0 -18
-11 -33 -25 -15 -14 -37 -28 -49 -31 -13 -4 -23 -10 -23 -15 0 -11 -112 -73
-198 -108 -384 -159 -851 -102 -1177 142 -474 355 -609 1002 -313 1510 22 38
46 71 53 74 8 2 17 15 21 26 9 31 22 46 152 190 l42 47 0 302 c0 260 -2 310
-17 351 -9 26 -20 47 -24 47 -3 0 -26 18 -50 41 -82 76 -242 175 -349 217
-152 58 -284 82 -458 82 -250 0 -469 -74 -667 -225 -91 -69 -102 -80 -155
-145 -25 -30 -50 -59 -57 -63 -7 -4 -13 -15 -13 -22 0 -8 -4 -15 -9 -15 -4 0
-28 -43 -52 -95 -24 -52 -49 -95 -55 -95 -5 0 -18 19 -28 43 -50 116 -201 305
-311 388 -16 13 -32 26 -35 29 -3 3 -40 27 -83 52 -164 98 -351 148 -555 148
-287 0 -519 -94 -723 -292 -27 -27 -53 -48 -59 -48 -5 0 -10 -7 -10 -16 0 -9
-16 -34 -35 -57 -19 -22 -35 -47 -35 -54 0 -7 -9 -21 -20 -30 -11 -10 -20 -24
-20 -33 0 -8 -8 -31 -19 -51 -26 -48 -57 -168 -70 -268 -15 -115 -15 -2854 -1
-2934 6 -31 17 -69 25 -84 8 -16 15 -33 15 -39 0 -11 103 -120 150 -160 35
-28 159 -56 244 -53 121 3 234 62 299 154 20 29 37 56 37 60 0 4 7 21 15 38
13 28 15 203 17 1312 l3 1280 24 63 c24 64 128 192 156 192 8 0 21 7 29 15 40
41 215 36 295 -6 99 -54 203 -213 237 -364 10 -48 18 -157 23 -345 6 -232 10
-282 26 -320 10 -25 24 -52 32 -61 7 -8 13 -20 13 -25 0 -5 27 -35 61 -66 181
-171 451 -169 620 4 112 115 127 180 129 528 0 215 9 280 52 390 27 69 67 140
79 140 5 0 9 7 9 14 0 18 103 104 147 122 33 14 187 19 217 8 24 -9 19 -52 -9
-78 -14 -13 -25 -29 -25 -36 0 -6 -6 -24 -14 -38 -32 -59 -65 -141 -90 -222
-15 -47 -31 -94 -36 -105 -37 -78 -70 -495 -52 -665 17 -157 36 -285 42 -290
3 -3 16 -41 29 -85 50 -177 178 -448 264 -560 4 -5 35 -48 70 -95 135 -185
277 -318 482 -453 55 -37 105 -71 112 -77 7 -5 16 -10 21 -10 5 0 30 -12 56
-26 65 -36 185 -85 291 -118 50 -16 99 -32 110 -36 22 -9 127 -29 190 -36 22
-3 64 -9 94 -15 106 -18 315 -11 486 17 88 14 172 32 187 40 14 8 32 14 40 14
11 0 99 32 233 84 29 11 181 90 214 111 132 83 293 206 361 276 191 196 323
380 430 602 38 79 70 111 70 72 0 -14 13 -20 35 -15 5 1 7 -2 3 -6 -5 -4 1
-14 12 -21 21 -15 45 -56 63 -107 6 -19 13 -216 16 -506 l6 -475 39 -64 c50
-83 104 -134 182 -172 83 -41 211 -51 295 -24 153 50 260 161 289 298 7 37 10
695 8 2227 l-3 2175 -34 59 c-39 69 -101 132 -164 169 -87 51 -229 70 -327 43z"/>
</g>
</svg>
